<?xml version="1.0" encoding="UTF-8" standalone="no"?>
<!-- Created with Inkscape (http://www.inkscape.org/) -->

<svg
   version="1.1"
   id="svg2"
   xml:space="preserve"
   width="596.05334"
   height="132.28"
   viewBox="0 0 596.05334 132.28"
   sodipodi:docname="FIT_barevne_CMYK_CZ.eps"
   xmlns:inkscape="http://www.inkscape.org/namespaces/inkscape"
   xmlns:sodipodi="http://sodipodi.sourceforge.net/DTD/sodipodi-0.dtd"
   xmlns="http://www.w3.org/2000/svg"
   xmlns:svg="http://www.w3.org/2000/svg"><defs
     id="defs6" /><sodipodi:namedview
     id="namedview4"
     pagecolor="#ffffff"
     bordercolor="#666666"
     borderopacity="1.0"
     inkscape:pageshadow="2"
     inkscape:pageopacity="0.0"
     inkscape:pagecheckerboard="0" /><g
     id="g8"
     inkscape:groupmode="layer"
     inkscape:label="ink_ext_XXXXXX"
     transform="matrix(1.3333333,0,0,-1.3333333,0,132.28)"><g
       id="g10"
       transform="scale(0.1)"><path
         d="M 4035.9,661.414 V 992.129 H 2886.51 l -1.42,-330.715 H 2520.21 V 330.715 H 2036.25 V 0 H 3756.1 v 330.703 h 714.25 V 661.414 H 4035.9"
         style="fill:#2cb9f1;fill-opacity:1;fill-rule:nonzero;stroke:none"
         id="path12" /><path
         d="M 1032.41,992.129 V 0 h 1003.84 v 330.715 l 483.94,0.008 v 330.691 h 0.02 366.3 v 330.715 h -1854.1"
         style="fill:#ee263a;fill-opacity:1;fill-rule:nonzero;stroke:none"
         id="path14" /><path
         d="M 0,992.121 V 0 H 992.117 V 992.121 H 0"
         style="fill:#ee263a;fill-opacity:1;fill-rule:nonzero;stroke:none"
         id="path16" /><path
         d="m 2170.7,456.543 18.14,23.32 46.39,-71.601 h 34.16 l -61.95,95.398 54.17,69.469 h -30.85 l -58.88,-75.363 h -1.18 v 75.363 h -28.26 V 408.262 h 28.26 v 48.281"
         style="fill:#ffffff;fill-opacity:1;fill-rule:nonzero;stroke:none"
         id="path18" /><path
         d="m 2381.73,612.004 h -30.85 l -19.79,-31.102 H 2353 l 28.73,31.102"
         style="fill:#ffffff;fill-opacity:1;fill-rule:nonzero;stroke:none"
         id="path20" /><path
         d="m 1604.73,478.926 h 65.95 v -70.664 h 28.26 v 164.867 h -28.26 v -69.715 h -65.95 v 69.715 h -28.27 V 408.262 h 28.27 v 70.664"
         style="fill:#ffffff;fill-opacity:1;fill-rule:nonzero;stroke:none"
         id="path22" /><path
         d="m 1380.98,432.754 h -75.37 v 46.172 h 68.3 v 24.488 h -68.3 v 45.238 h 73.01 v 24.477 H 1277.35 V 408.262 h 103.63 v 24.492"
         style="fill:#ffffff;fill-opacity:1;fill-rule:nonzero;stroke:none"
         id="path24" /><path
         d="m 1458.7,408.262 h 37.69 c 23.79,0 40.04,16.25 40.04,40.039 v 10.137 h -28.27 v -11.543 c 0,-8.477 -5.65,-14.141 -14.13,-14.141 h -32.97 c -8.48,0 -14.13,5.664 -14.13,14.141 v 87.617 c 0,8.472 5.65,14.14 14.13,14.14 h 32.97 c 8.48,0 14.13,-5.668 14.13,-14.14 v -11.551 h 28.27 v 10.129 c 0,23.789 -16.25,40.039 -40.04,40.039 h -37.69 c -23.79,0 -40.04,-16.25 -40.04,-40.039 v -84.789 c 0,-23.789 16.25,-40.039 40.04,-40.039"
         style="fill:#ffffff;fill-opacity:1;fill-rule:nonzero;stroke:none"
         id="path26" /><path
         d="m 1771.95,521.078 h 0.95 l 65,-112.816 h 28.27 V 573.129 H 1837.9 V 460.313 h -0.94 l -65.01,112.816 h -28.26 V 408.262 h 28.26 v 112.816"
         style="fill:#ffffff;fill-opacity:1;fill-rule:nonzero;stroke:none"
         id="path28" /><path
         d="m 2403.18,432.754 h -75.37 v 46.172 h 68.3 v 24.488 h -68.3 v 45.238 h 73 v 24.477 H 2299.52 V 408.262 h 103.66 v 24.492"
         style="fill:#ffffff;fill-opacity:1;fill-rule:nonzero;stroke:none"
         id="path30" /><path
         d="m 1171.36,408.262 h 28.26 v 140.39 h 47.11 v 24.477 h -122.48 v -24.477 h 47.11 v -140.39"
         style="fill:#ffffff;fill-opacity:1;fill-rule:nonzero;stroke:none"
         id="path32" /><path
         d="m 2023.97,408.262 h 37.68 c 23.79,0 40.04,16.25 40.04,40.039 v 10.137 h -28.26 v -11.543 c 0,-8.477 -5.65,-14.141 -14.13,-14.141 h -32.98 c -8.48,0 -14.13,5.664 -14.13,14.141 v 87.617 c 0,8.472 5.65,14.14 14.13,14.14 h 32.98 c 8.48,0 14.13,-5.668 14.13,-14.14 v -11.551 h 28.26 v 10.129 c 0,23.789 -16.25,40.039 -40.04,40.039 h -37.68 c -23.79,0 -40.04,-16.25 -40.04,-40.039 v -84.789 c 0,-23.789 16.25,-40.039 40.04,-40.039"
         style="fill:#ffffff;fill-opacity:1;fill-rule:nonzero;stroke:none"
         id="path34" /><path
         d="m 1939.18,573.129 h -28.26 V 408.262 h 28.26 v 164.867"
         style="fill:#ffffff;fill-opacity:1;fill-rule:nonzero;stroke:none"
         id="path36" /><path
         d="m 1742.75,129.609 h -0.95 l -65,112.813 h -28.27 V 77.5586 h 28.27 V 190.371 h 0.94 l 65.01,-112.8124 h 28.26 V 242.422 h -28.26 V 129.609"
         style="fill:#ffffff;fill-opacity:1;fill-rule:nonzero;stroke:none"
         id="path38" /><path
         d="m 1844.02,148.223 h 68.31 v 24.472 h -68.31 v 45.235 h 73.02 v 24.492 H 1815.76 V 77.5586 h 103.63 v 24.4924 h -75.37 v 46.172"
         style="fill:#ffffff;fill-opacity:1;fill-rule:nonzero;stroke:none"
         id="path40" /><path
         d="m 1566.1,165.645 h -44.75 v 52.285 h 44.75 c 8.48,0 14.13,-5.664 14.13,-14.141 v -24.023 c 0,-8.477 -5.65,-14.121 -14.13,-14.121 z m 42.4,15.546 v 21.192 c 0,23.789 -16.26,40.039 -40.04,40.039 h -75.37 V 77.5586 h 28.26 v 63.5934 h 27.56 l 33.21,-63.5934 h 31.09 l -33.92,64.7654 c 17.67,4.239 29.21,18.848 29.21,38.867"
         style="fill:#ffffff;fill-opacity:1;fill-rule:nonzero;stroke:none"
         id="path42" /><path
         d="m 1186.67,116.66 h -0.94 l -39.1,125.762 h -29.44 l 53.23,-164.8634 h 29.21 l 53.23,164.8634 H 1226 L 1186.67,116.66"
         style="fill:#ffffff;fill-opacity:1;fill-rule:nonzero;stroke:none"
         id="path44" /><path
         d="m 1881.47,250.195 22.38,31.094 h -23.32 l -12.95,-16.719 -12.96,16.719 h -24.26 l 22.38,-31.094 h 28.73"
         style="fill:#ffffff;fill-opacity:1;fill-rule:nonzero;stroke:none"
         id="path46" /><path
         d="m 1424.79,116.191 c 0,-8.496 -5.66,-14.14 -14.14,-14.14 h -47.1 v 46.172 h 48.52 c 7.53,0 12.72,-5.196 12.72,-12.735 z m -61.24,101.739 h 43.57 c 8.48,0 14.13,-5.664 14.13,-14.141 V 185.43 c 0,-7.539 -5.18,-12.735 -12.72,-12.735 h -44.98 z m 68.54,-56.992 v 0.937 c 10.83,5.891 17.43,16.953 17.43,31.328 v 9.18 c 0,23.789 -16.26,40.039 -40.04,40.039 h -74.2 V 77.5586 h 77.73 c 23.79,0 40.04,16.25 40.04,40.0394 v 10.351 c 0,15.781 -8.01,27.559 -20.96,32.989"
         style="fill:#ffffff;fill-opacity:1;fill-rule:nonzero;stroke:none"
         id="path48" /><path
         d="m 1927.64,809.629 h 68.3 v 24.492 h -68.3 v 45.231 h 73.01 V 903.84 H 1899.37 V 738.969 h 103.64 v 24.504 h -75.37 v 46.156"
         style="fill:#ffffff;fill-opacity:1;fill-rule:nonzero;stroke:none"
         id="path50" /><path
         d="m 2348.99,911.613 22.38,31.086 h -23.32 l -12.95,-16.719 -12.96,16.719 h -24.25 l 22.37,-31.086 h 28.73"
         style="fill:#ffffff;fill-opacity:1;fill-rule:nonzero;stroke:none"
         id="path52" /><path
         d="m 1673.27,777.598 c 0,-8.477 -5.66,-14.125 -14.13,-14.125 h -37.69 c -8.48,0 -14.13,5.648 -14.13,14.125 v 87.613 c 0,8.48 5.65,14.141 14.13,14.141 h 37.69 c 8.47,0 14.13,-5.661 14.13,-14.141 z m -11.78,126.242 h -42.39 c -23.79,0 -40.04,-16.25 -40.04,-40.039 v -84.793 c 0,-23.789 16.25,-40.039 40.04,-40.039 h 42.39 c 23.79,0 40.04,16.25 40.04,40.039 v 84.793 c 0,23.789 -16.25,40.039 -40.04,40.039"
         style="fill:#ffffff;fill-opacity:1;fill-rule:nonzero;stroke:none"
         id="path54" /><path
         d="m 1861.45,903.84 h -30.85 l -58.88,-75.367 h -1.18 v 75.367 h -28.26 V 738.969 h 28.26 v 48.281 l 18.14,23.32 46.4,-71.601 h 34.15 l -61.95,95.39 54.17,69.481"
         style="fill:#ffffff;fill-opacity:1;fill-rule:nonzero;stroke:none"
         id="path56" /><path
         d="m 1981.57,942.699 h -30.85 l -19.79,-31.086 h 21.91 l 28.73,31.086"
         style="fill:#ffffff;fill-opacity:1;fill-rule:nonzero;stroke:none"
         id="path58" /><path
         d="m 2353.94,903.84 h -37.68 c -23.78,0 -40.03,-16.25 -40.03,-40.039 v -84.793 c 0,-23.789 16.25,-40.039 40.03,-40.039 h 37.68 c 23.79,0 40.04,16.25 40.04,40.039 v 10.14 h -28.26 v -11.55 c 0,-8.477 -5.67,-14.125 -14.14,-14.125 h -32.97 c -8.48,0 -14.12,5.648 -14.12,14.125 v 87.613 c 0,8.48 5.64,14.141 14.12,14.141 h 32.97 c 8.47,0 14.14,-5.661 14.14,-14.141 v -11.543 h 28.26 v 10.133 c 0,23.789 -16.25,40.039 -40.04,40.039"
         style="fill:#ffffff;fill-opacity:1;fill-rule:nonzero;stroke:none"
         id="path60" /><path
         d="m 2203.2,777.598 c 0,-8.477 -5.65,-14.125 -14.13,-14.125 h -37.68 c -8.48,0 -14.14,5.648 -14.14,14.125 V 903.84 h -28.26 V 779.008 c 0,-23.789 16.25,-40.039 40.04,-40.039 h 42.4 c 23.78,0 40.04,16.25 40.04,40.039 V 903.84 H 2203.2 V 777.598"
         style="fill:#ffffff;fill-opacity:1;fill-rule:nonzero;stroke:none"
         id="path62" /><path
         d="m 1496.62,834.121 h -32.97 c -8.48,0 -14.13,5.66 -14.13,14.141 v 16.949 c 0,8.48 5.65,14.141 14.13,14.141 h 29.44 c 8.48,0 14.13,-5.661 14.13,-14.141 v -11.543 h 28.26 v 10.133 c 0,23.789 -16.25,40.039 -40.04,40.039 h -34.15 c -23.79,0 -40.04,-16.25 -40.04,-40.039 v -14.133 c 0,-23.789 16.25,-40.039 40.04,-40.039 h 32.98 c 8.48,0 14.13,-5.649 14.13,-14.133 v -17.898 c 0,-8.477 -5.65,-14.125 -14.13,-14.125 h -32.98 c -8.48,0 -14.13,5.648 -14.13,14.125 v 11.55 h -28.26 v -10.14 c 0,-23.789 16.25,-40.039 40.04,-40.039 h 37.68 c 23.79,0 40.04,16.25 40.04,40.039 v 15.07 c 0,23.793 -16.25,40.043 -40.04,40.043"
         style="fill:#ffffff;fill-opacity:1;fill-rule:nonzero;stroke:none"
         id="path64" /><path
         d="m 1336.94,836.25 h -0.95 l -36.5,67.59 h -32.51 l 53.47,-94.918 v -69.953 h 28.26 v 69.953 l 56.06,94.918 h -29.44 l -38.39,-67.59"
         style="fill:#ffffff;fill-opacity:1;fill-rule:nonzero;stroke:none"
         id="path66" /><path
         d="m 2740.21,738.969 h 28.26 V 903.84 h -28.26 V 738.969"
         style="fill:#ffffff;fill-opacity:1;fill-rule:nonzero;stroke:none"
         id="path68" /><path
         d="m 2743.03,911.613 h 21.91 l 28.73,31.086 h -30.84 l -19.8,-31.086"
         style="fill:#ffffff;fill-opacity:1;fill-rule:nonzero;stroke:none"
         id="path70" /><path
         d="m 2667.19,791.02 h -0.94 l -65,112.82 h -28.27 V 738.969 h 28.27 v 112.816 h 0.93 l 65.01,-112.816 h 28.25 V 903.84 h -28.25 V 791.02"
         style="fill:#ffffff;fill-opacity:1;fill-rule:nonzero;stroke:none"
         id="path72" /><path
         d="m 2459.94,809.629 h 68.3 v 24.492 h -68.3 v 45.231 h 73 V 903.84 H 2431.66 V 738.969 h 103.64 v 24.504 h -75.36 v 46.156"
         style="fill:#ffffff;fill-opacity:1;fill-rule:nonzero;stroke:none"
         id="path74" /><path
         d="m 1186.67,778.07 h -0.94 l -39.1,125.77 h -29.44 l 53.23,-164.871 h 29.21 l 53.23,164.871 H 1226 l -39.33,-125.77"
         style="fill:#ffffff;fill-opacity:1;fill-rule:nonzero;stroke:none"
         id="path76" /><path
         d="m 3459.07,738.977 h 42.39 c 23.79,0 40.04,16.25 40.04,40.039 v 124.828 h -28.25 V 777.602 c 0,-8.493 -5.65,-14.141 -14.13,-14.141 h -37.69 c -8.48,0 -14.14,5.648 -14.14,14.141 v 126.242 h -28.27 V 779.016 c 0,-23.789 16.26,-40.039 40.05,-40.039"
         style="fill:#ffffff;fill-opacity:1;fill-rule:nonzero;stroke:none"
         id="path78" /><path
         d="m 3728.75,738.977 h 28.28 V 879.34 h 47.09 v 24.504 H 3681.66 V 879.34 h 47.09 V 738.977"
         style="fill:#ffffff;fill-opacity:1;fill-rule:nonzero;stroke:none"
         id="path80" /><path
         d="m 3682.82,763.461 h -68.29 v 140.383 h -28.26 V 738.977 h 96.55 v 24.484"
         style="fill:#ffffff;fill-opacity:1;fill-rule:nonzero;stroke:none"
         id="path82" /><path
         d="m 3871.47,867.574 h 0.97 l 20.7,-62.422 h -42.61 z m -42.86,-128.597 13.91,41.687 h 58.64 l 13.9,-41.687 h 29.44 l -56.78,164.867 h -29.19 l -56.75,-164.867 h 26.83"
         style="fill:#ffffff;fill-opacity:1;fill-rule:nonzero;stroke:none"
         id="path84" /><path
         d="m 3290.2,787.25 18.14,23.32 46.4,-71.593 h 34.15 l -61.96,95.382 54.18,69.485 h -30.86 l -58.87,-75.371 h -1.18 v 75.371 h -28.27 V 738.977 h 28.27 v 48.273"
         style="fill:#ffffff;fill-opacity:1;fill-rule:nonzero;stroke:none"
         id="path86" /><path
         d="m 3157.61,867.574 h 0.93 l 20.74,-62.422 h -42.64 z m -28.99,-86.91 h 58.66 l 13.88,-41.687 h 29.46 l -56.76,164.867 h -29.21 l -56.76,-164.867 h 26.85 l 13.88,41.687"
         style="fill:#ffffff;fill-opacity:1;fill-rule:nonzero;stroke:none"
         id="path88" /><path
         d="m 3013.71,809.633 h 63.58 v 24.476 h -63.58 V 879.34 H 3082 v 24.504 h -96.57 V 738.977 h 28.28 v 70.656"
         style="fill:#ffffff;fill-opacity:1;fill-rule:nonzero;stroke:none"
         id="path90" /><path
         d="m 4322.68,503.418 h -65.94 v 69.723 h -28.27 V 408.262 h 28.27 v 70.664 h 65.94 v -70.664 h 28.26 v 164.879 h -28.26 v -69.723"
         style="fill:#ffffff;fill-opacity:1;fill-rule:nonzero;stroke:none"
         id="path92" /><path
         d="m 3091.34,446.895 c 0,-8.477 -5.65,-14.141 -14.12,-14.141 h -37.68 c -8.5,0 -14.14,5.664 -14.14,14.141 v 87.613 c 0,8.48 5.64,14.129 14.14,14.129 h 37.68 c 8.47,0 14.12,-5.649 14.12,-14.129 z m -11.76,126.246 h -42.41 c -23.78,0 -40.03,-16.25 -40.03,-40.055 v -84.785 c 0,-23.789 16.25,-40.039 40.03,-40.039 h 42.41 c 23.78,0 40.04,16.25 40.04,40.039 v 84.785 c 0,23.805 -16.26,40.055 -40.04,40.055"
         style="fill:#ffffff;fill-opacity:1;fill-rule:nonzero;stroke:none"
         id="path94" /><path
         d="m 3395.89,468.32 h -0.94 l -45.69,104.821 h -29.47 V 408.262 h 28.29 v 101.504 h 1.18 l 44.27,-101.504 h 1.42 l 44.49,101.504 h 1.19 V 408.262 h 28.04 v 164.879 h -27.09 L 3395.89,468.32"
         style="fill:#ffffff;fill-opacity:1;fill-rule:nonzero;stroke:none"
         id="path96" /><path
         d="m 3548.04,474.453 20.95,62.402 h 0.96 l 20.7,-62.402 z m 8,98.688 -56.75,-164.879 h 26.85 l 13.89,41.699 h 58.65 l 13.9,-41.699 h 29.44 l -56.78,164.879 h -29.2"
         style="fill:#ffffff;fill-opacity:1;fill-rule:nonzero;stroke:none"
         id="path98" /><path
         d="m 4148.4,573.141 h -37.71 c -23.79,0 -40.04,-16.25 -40.04,-40.055 v -84.785 c 0,-23.789 16.25,-40.039 40.04,-40.039 h 37.71 c 23.78,0 40.03,16.25 40.03,40.039 v 10.137 h -28.26 v -11.543 c 0,-8.477 -5.65,-14.141 -14.14,-14.141 h -32.97 c -8.47,0 -14.12,5.664 -14.12,14.141 v 87.613 c 0,8.48 5.65,14.129 14.12,14.129 h 32.97 c 8.49,0 14.14,-5.649 14.14,-14.129 v -11.539 h 28.26 v 10.117 c 0,23.805 -16.25,40.055 -40.03,40.055"
         style="fill:#ffffff;fill-opacity:1;fill-rule:nonzero;stroke:none"
         id="path100" /><path
         d="m 3997.66,408.262 h 28.26 v 164.879 h -28.26 V 408.262"
         style="fill:#ffffff;fill-opacity:1;fill-rule:nonzero;stroke:none"
         id="path102" /><path
         d="m 4000.49,580.906 h 21.9 l 28.73,31.09 h -30.86 l -19.77,-31.09"
         style="fill:#ffffff;fill-opacity:1;fill-rule:nonzero;stroke:none"
         id="path104" /><path
         d="m 3750.36,573.141 h -37.69 c -23.79,0 -40.04,-16.25 -40.04,-40.055 v -84.785 c 0,-23.789 16.25,-40.039 40.04,-40.039 h 37.69 c 23.79,0 40.04,16.25 40.04,40.039 v 10.137 h -28.27 v -11.543 c 0,-8.477 -5.66,-14.141 -14.13,-14.141 h -32.97 c -8.5,0 -14.13,5.664 -14.13,14.141 v 87.613 c 0,8.48 5.63,14.129 14.13,14.129 H 3748 c 8.47,0 14.13,-5.649 14.13,-14.129 v -11.539 h 28.27 v 10.117 c 0,23.805 -16.25,40.055 -40.04,40.055"
         style="fill:#ffffff;fill-opacity:1;fill-rule:nonzero;stroke:none"
         id="path106" /><path
         d="m 2866.42,408.262 h 28.26 v 70.664 h 63.6 v 24.492 h -63.6 v 45.219 h 68.31 v 24.504 h -96.57 V 408.262"
         style="fill:#ffffff;fill-opacity:1;fill-rule:nonzero;stroke:none"
         id="path108" /><path
         d="m 2626.19,408.262 h 28.25 v 164.879 h -28.25 V 408.262"
         style="fill:#ffffff;fill-opacity:1;fill-rule:nonzero;stroke:none"
         id="path110" /><path
         d="m 2793.41,460.32 h -0.94 l -65.01,112.821 H 2699.2 V 408.262 h 28.26 V 521.09 h 0.95 l 65,-112.828 h 28.26 v 164.879 h -28.26 V 460.32"
         style="fill:#ffffff;fill-opacity:1;fill-rule:nonzero;stroke:none"
         id="path112" /><path
         d="m 3924.65,460.32 h -0.94 l -65.01,112.821 h -28.26 V 408.262 h 28.26 V 521.09 h 0.94 l 65.01,-112.828 h 28.26 v 164.879 h -28.26 V 460.32"
         style="fill:#ffffff;fill-opacity:1;fill-rule:nonzero;stroke:none"
         id="path114" /><path
         d="m 3745.41,580.906 22.37,31.09 h -23.32 l -12.95,-16.719 -12.97,16.719 h -24.25 l 22.39,-31.09 h 28.73"
         style="fill:#ffffff;fill-opacity:1;fill-rule:nonzero;stroke:none"
         id="path116" /><path
         d="m 3237.37,496.359 h -44.74 v 52.278 h 44.74 c 8.49,0 14.12,-5.649 14.12,-14.129 v -24.02 c 0,-8.48 -5.63,-14.129 -14.12,-14.129 z m 42.39,15.539 v 21.188 c 0,23.805 -16.25,40.055 -40.04,40.055 h -75.35 V 408.262 h 28.26 v 63.593 h 27.56 l 33.21,-63.593 h 31.09 l -33.93,64.765 c 17.67,4.239 29.2,18.848 29.2,38.871"
         style="fill:#ffffff;fill-opacity:1;fill-rule:nonzero;stroke:none"
         id="path118" /><path
         d="m 2667.46,172.695 h -65.95 v 69.727 h -28.27 V 77.5586 h 28.27 v 70.6644 h 65.95 V 77.5586 h 28.26 V 242.422 h -28.26 v -69.727"
         style="fill:#ffffff;fill-opacity:1;fill-rule:nonzero;stroke:none"
         id="path120" /><path
         d="m 2302.39,148.223 h 68.3 v 24.472 h -68.3 v 45.235 h 73.02 v 24.492 H 2274.13 V 77.5586 h 103.63 v 24.4924 h -75.37 v 46.172"
         style="fill:#ffffff;fill-opacity:1;fill-rule:nonzero;stroke:none"
         id="path122" /><path
         d="m 2493.17,242.422 h -37.69 c -23.79,0 -40.04,-16.25 -40.04,-40.039 v -84.785 c 0,-23.7894 16.25,-40.0394 40.04,-40.0394 h 37.69 c 23.79,0 40.04,16.25 40.04,40.0394 v 10.136 h -28.27 v -11.543 c 0,-8.496 -5.65,-14.14 -14.13,-14.14 h -32.97 c -8.48,0 -14.13,5.644 -14.13,14.14 v 87.598 c 0,8.477 5.65,14.141 14.13,14.141 h 32.97 c 8.48,0 14.13,-5.664 14.13,-14.141 v -11.543 h 28.27 v 10.137 c 0,23.789 -16.25,40.039 -40.04,40.039"
         style="fill:#ffffff;fill-opacity:1;fill-rule:nonzero;stroke:none"
         id="path124" /><path
         d="m 2121.03,217.93 h 47.11 V 77.5586 h 28.26 V 217.93 h 47.11 v 24.492 H 2121.03 V 217.93"
         style="fill:#ffffff;fill-opacity:1;fill-rule:nonzero;stroke:none"
         id="path126" /><path
         d="m 3299.85,116.191 c 0,-8.496 -5.66,-14.14 -14.13,-14.14 h -37.7 c -8.47,0 -14.12,5.644 -14.12,14.14 v 87.598 c 0,8.477 5.65,14.141 14.12,14.141 h 37.7 c 8.47,0 14.13,-5.664 14.13,-14.141 z m -11.79,126.231 h -42.38 c -23.79,0 -40.04,-16.25 -40.04,-40.039 v -84.785 c 0,-23.7894 16.25,-40.0394 40.04,-40.0394 h 42.38 c 23.8,0 40.05,16.25 40.05,40.0394 v 84.785 c 0,23.789 -16.25,40.039 -40.05,40.039"
         style="fill:#ffffff;fill-opacity:1;fill-rule:nonzero;stroke:none"
         id="path128" /><path
         d="m 3103.19,242.422 h -28.27 V 77.5586 h 96.57 v 24.4924 h -68.3 v 140.371"
         style="fill:#ffffff;fill-opacity:1;fill-rule:nonzero;stroke:none"
         id="path130" /><path
         d="m 2834.68,129.609 h -0.93 l -65.02,112.813 h -28.27 V 77.5586 h 28.27 V 190.371 h 0.95 l 65,-112.8124 h 28.26 V 242.422 h -28.26 V 129.609"
         style="fill:#ffffff;fill-opacity:1;fill-rule:nonzero;stroke:none"
         id="path132" /><path
         d="m 3001.91,116.191 c 0,-8.496 -5.66,-14.14 -14.13,-14.14 h -37.69 c -8.48,0 -14.14,5.644 -14.14,14.14 v 87.598 c 0,8.477 5.66,14.141 14.14,14.141 h 37.69 c 8.47,0 14.13,-5.664 14.13,-14.141 z m -11.78,126.231 h -42.39 c -23.79,0 -40.04,-16.25 -40.04,-40.039 v -84.785 c 0,-23.7894 16.25,-40.0394 40.04,-40.0394 h 42.39 c 23.79,0 40.04,16.25 40.04,40.0394 v 84.785 c 0,23.789 -16.25,40.039 -40.04,40.039"
         style="fill:#ffffff;fill-opacity:1;fill-rule:nonzero;stroke:none"
         id="path134" /><path
         d="m 3450.58,242.422 h -37.68 c -23.79,0 -40.04,-16.25 -40.04,-40.039 v -84.785 c 0,-23.7894 16.25,-40.0394 40.04,-40.0394 h 37.68 c 23.8,0 40.05,16.25 40.05,40.0394 v 43.34 h -61.24 v -24.512 h 32.97 v -20.235 c 0,-8.496 -5.65,-14.14 -14.13,-14.14 h -32.97 c -8.49,0 -14.13,5.644 -14.13,14.14 v 87.598 c 0,8.477 5.64,14.141 14.13,14.141 h 32.97 c 8.48,0 14.13,-5.664 14.13,-14.141 v -11.543 h 28.27 v 10.137 c 0,23.789 -16.25,40.039 -40.05,40.039"
         style="fill:#ffffff;fill-opacity:1;fill-rule:nonzero;stroke:none"
         id="path136" /><path
         d="m 3611.21,250.195 h 21.91 l 28.73,31.094 h -30.86 l -19.78,-31.094"
         style="fill:#ffffff;fill-opacity:1;fill-rule:nonzero;stroke:none"
         id="path138" /><path
         d="m 3535.38,77.5586 h 28.26 V 242.422 h -28.26 V 77.5586"
         style="fill:#ffffff;fill-opacity:1;fill-rule:nonzero;stroke:none"
         id="path140" /><path
         d="m 3608.4,77.5586 h 28.25 V 242.422 H 3608.4 V 77.5586"
         style="fill:#ffffff;fill-opacity:1;fill-rule:nonzero;stroke:none"
         id="path142" /><path
         d="m 581.453,165.41 v 389.246 c 0,39.563 34.328,71.621 76.649,71.621 H 830.094 V 728.57 L 466.121,728.559 V 165.41 h 115.332"
         style="fill:#ffffff;fill-opacity:1;fill-rule:nonzero;stroke:none"
         id="path144" /><path
         d="M 466.121,728.57 V 840.371 H 159.453 V 728.559 h 306.668 v 0.011"
         style="fill:#ffffff;fill-opacity:1;fill-rule:nonzero;stroke:none"
         id="path146" /></g></g></svg>
